<?xml version="1.0" encoding="UTF-8" standalone="no"?>
<!DOCTYPE svg PUBLIC "-//W3C//DTD SVG 1.1//EN" "http://www.w3.org/Graphics/SVG/1.1/DTD/svg11.dtd">
<svg xmlns="http://www.w3.org/2000/svg" version="1.1" viewBox="0.00 0.00 482.00 395.00">
<path fill="#f46600" d="
  M 138.13 0.00
  L 160.24 0.00
  Q 165.67 0.93 167.25 1.79
  C 176.33 6.72 180.10 14.38 181.84 24.20
  A 1.53 1.53 0.0 0 0 183.35 25.47
  Q 239.76 25.48 296.50 25.49
  Q 305.79 25.49 311.83 31.29
  C 317.07 36.33 320.91 44.35 320.04 51.76
  Q 319.89 53.07 317.97 57.56
  Q 311.58 72.52 297.70 105.25
  Q 293.65 114.79 284.61 118.09
  Q 280.73 119.51 272.72 119.51
  Q 235.97 119.51 199.22 119.53
  Q 198.67 119.53 198.68 120.09
  C 198.81 127.02 203.34 127.87 209.41 127.91
  Q 245.45 128.17 281.50 128.02
  C 288.33 127.99 290.11 135.92 287.85 140.88
  C 286.39 144.09 283.30 145.14 280.00 145.15
  Q 244.12 145.17 208.25 145.29
  Q 192.81 145.35 186.16 132.86
  Q 184.08 128.95 182.65 120.76
  Q 174.33 73.00 165.91 25.26
  C 165.14 20.86 163.64 17.26 158.50 17.15
  Q 148.87 16.95 139.25 16.91
  C 129.73 16.86 129.13 1.68 138.13 0.00
  Z
  M 233.75 43.37
  A 0.76 0.76 0.0 0 0 232.99 42.61
  L 218.89 42.61
  A 0.76 0.76 0.0 0 0 218.13 43.37
  L 218.13 101.77
  A 0.76 0.76 0.0 0 0 218.89 102.53
  L 232.99 102.53
  A 0.76 0.76 0.0 0 0 233.75 101.77
  L 233.75 43.37
  Z
  M 281.72 42.62
  A 0.98 0.98 0.0 0 0 280.74 43.60
  L 280.75 100.42
  A 0.98 0.98 0.0 0 0 282.63 100.80
  L 304.57 48.78
  A 0.98 0.98 0.0 0 0 304.44 47.78
  L 300.64 43.02
  A 0.98 0.98 0.0 0 0 299.88 42.65
  L 281.72 42.62
  Z
  M 202.49 43.63
  A 0.98 0.98 0.0 0 0 201.51 42.65
  L 186.24 42.62
  A 0.98 0.98 0.0 0 0 185.28 43.77
  L 195.24 101.69
  A 0.98 0.98 0.0 0 0 196.21 102.51
  L 201.50 102.49
  A 0.98 0.98 0.0 0 0 202.48 101.51
  L 202.49 43.63
  Z
  M 265.29 43.51
  A 0.88 0.88 0.0 0 0 264.41 42.63
  L 250.31 42.63
  A 0.88 0.88 0.0 0 0 249.43 43.51
  L 249.43 101.61
  A 0.88 0.88 0.0 0 0 250.31 102.49
  L 264.41 102.49
  A 0.88 0.88 0.0 0 0 265.29 101.61
  L 265.29 43.51
  Z"
/>
<ellipse fill="#f46600" cx="0.00" cy="0.00" transform="translate(210.27,170.94) rotate(90.1)" rx="17.20" ry="15.66"/>
<ellipse fill="#f46600" cx="0.00" cy="0.00" transform="translate(273.04,170.89) rotate(90.1)" rx="17.21" ry="15.87"/>
<path fill="#f46600" d="
  M 224.52 297.53
  Q 229.21 297.44 232.76 296.52
  Q 243.68 293.68 253.16 292.73
  A 1.15 1.12 64.0 0 1 254.06 293.05
  C 256.47 295.41 258.69 303.04 255.81 305.44
  A 1.12 1.10 27.2 0 1 254.97 305.70
  C 243.65 304.57 231.62 306.17 219.75 308.29
  C 217.02 308.78 211.12 301.27 209.80 299.12
  A 1.72 1.70 -48.6 0 1 209.71 297.50
  C 221.88 271.44 231.91 243.84 237.86 215.64
  Q 238.02 214.90 238.75 215.10
  Q 246.89 217.40 251.56 224.45
  A 1.26 1.25 -49.9 0 1 251.66 225.67
  C 241.89 247.38 233.78 269.87 224.98 291.99
  Q 224.03 294.38 223.95 296.95
  A 0.56 0.56 0.0 0 0 224.52 297.53
  Z"
/>
<path fill="#f46600" d="
  M 156.63 224.74
  C 146.35 229.33 142.45 237.31 138.08 247.42
  Q 137.85 247.95 137.33 247.70
  C 133.15 245.78 129.22 240.74 131.23 235.91
  C 139.85 215.21 167.22 212.33 185.32 219.13
  C 202.50 225.59 209.69 240.81 207.71 258.47
  C 204.61 286.07 179.60 312.12 150.26 307.09
  C 143.00 305.85 135.55 300.95 132.46 294.23
  A 2.96 2.93 -45.3 0 1 132.46 291.78
  Q 136.64 282.71 140.35 273.05
  Q 149.28 249.78 157.61 225.63
  Q 158.15 224.06 156.63 224.74
  Z
  M 173.01 228.74
  A 1.02 1.01 -62.3 0 1 173.44 230.14
  Q 159.17 256.06 148.38 283.85
  Q 146.19 289.51 144.98 295.83
  A 1.23 1.23 0.0 0 0 145.96 297.27
  C 173.39 302.55 194.45 278.51 198.10 253.68
  Q 199.71 242.75 196.84 235.54
  C 191.49 222.09 174.70 219.59 161.70 222.76
  Q 161.24 222.87 161.66 223.08
  L 173.01 228.74
  Z"
/>
<path fill="#f46600" d="
  M 335.19 230.88
  C 322.32 230.49 310.01 230.54 297.27 232.66
  Q 292.86 233.39 288.99 235.06
  A 0.76 0.76 0.0 0 1 287.96 234.60
  C 286.37 229.79 287.03 222.92 287.45 217.58
  Q 287.60 215.70 289.45 216.04
  Q 320.23 221.70 351.46 220.24
  A 1.49 1.48 77.3 0 1 352.90 221.16
  Q 354.78 225.74 354.77 230.74
  A 2.06 2.06 0.0 0 1 353.57 232.61
  C 324.79 245.82 299.60 267.88 282.61 294.55
  A 0.45 0.45 0.0 0 0 283.03 295.24
  Q 294.61 294.09 306.25 293.34
  Q 317.33 292.62 327.33 287.73
  A 0.59 0.58 -22.1 0 1 328.14 288.07
  Q 330.93 296.79 331.22 305.94
  A 0.85 0.85 0.0 0 1 330.30 306.81
  Q 320.54 305.96 311.25 305.81
  Q 298.16 305.61 285.29 308.00
  C 276.67 309.60 268.31 312.36 261.21 317.65
  A 0.38 0.38 0.0 0 1 260.62 317.46
  C 259.55 313.96 257.57 309.20 258.58 305.53
  C 259.40 302.54 262.60 300.57 264.47 298.03
  C 283.55 272.12 308.87 250.05 335.64 232.51
  Q 338.00 230.96 335.19 230.88
  Z"
/>
<path fill="#000b70" d="
  M 404.29 334.08
  C 402.76 325.68 399.62 318.37 394.81 310.90
  Q 393.61 309.03 395.42 307.74
  L 399.21 305.03
  Q 401.11 303.68 402.36 305.65
  Q 420.52 334.08 402.41 361.18
  C 399.13 366.09 393.73 372.32 386.93 370.29
  C 369.78 365.19 386.08 337.22 395.77 332.31
  C 398.46 330.95 401.73 332.80 403.81 334.38
  Q 404.43 334.85 404.29 334.08
  Z
  M 402.51 337.27
  C 395.60 342.98 385.98 354.95 386.36 364.24
  C 386.50 367.76 389.30 368.85 392.00 366.72
  C 399.95 360.44 404.08 347.62 404.31 338.14
  A 1.10 1.10 0.0 0 0 402.51 337.27
  Z"
/>
<path fill="#000b70" d="
  M 21.07 325.66
  Q 22.93 328.52 26.57 330.93
  C 32.50 334.87 40.68 338.17 48.20 342.55
  C 57.99 348.25 55.39 363.89 47.02 369.45
  C 36.82 376.23 20.93 371.33 12.03 364.22
  Q 4.02 357.81 10.40 349.22
  A 0.81 0.80 51.0 0 1 11.78 349.37
  C 16.15 358.83 26.68 362.91 36.51 363.56
  C 42.04 363.93 49.69 361.92 51.00 355.73
  C 51.58 352.99 49.43 350.61 47.26 349.45
  Q 41.24 346.21 33.01 342.73
  C 26.97 340.17 17.41 335.55 17.01 327.82
  C 16.55 318.96 24.95 312.41 33.26 311.65
  Q 44.60 310.62 55.51 315.75
  C 59.39 317.58 56.10 324.40 54.25 326.41
  A 0.91 0.91 0.0 0 1 52.93 326.43
  C 46.80 320.22 37.89 318.39 29.52 319.54
  C 26.67 319.93 21.56 321.22 20.88 324.62
  Q 20.76 325.18 21.07 325.66
  Z"
/>
<path fill="#000b70" d="
  M 112.47 343.44
  C 115.59 339.73 121.34 332.41 127.09 333.30
  Q 132.74 334.19 132.08 340.97
  Q 131.04 351.65 125.12 359.33
  C 122.06 363.29 114.03 369.50 108.55 366.79
  A 0.67 0.67 0.0 0 1 108.41 365.68
  C 118.14 357.40 121.95 348.27 125.72 336.31
  A 0.49 0.49 0.0 0 0 125.04 335.72
  Q 120.68 337.81 117.33 341.59
  C 111.19 348.54 106.96 354.35 103.96 362.80
  Q 98.60 377.93 95.10 393.58
  Q 95.00 394.04 94.56 393.88
  Q 91.38 392.75 90.71 389.99
  Q 89.22 383.87 91.29 376.45
  C 95.16 362.64 101.43 348.54 105.75 336.25
  Q 107.62 330.92 110.48 326.93
  Q 111.79 325.09 113.87 325.96
  L 117.83 327.60
  Q 119.85 328.44 118.49 330.15
  Q 113.87 335.96 111.69 343.01
  Q 111.02 345.17 112.47 343.44
  Z"
/>
<path fill="#000b70" d="
  M 460.91 357.03
  Q 461.31 362.44 460.20 365.77
  C 458.37 371.24 451.67 376.28 445.68 374.05
  C 441.09 372.35 439.78 367.79 442.11 363.37
  Q 446.22 355.55 455.50 354.13
  A 1.31 1.31 0.0 0 0 456.56 352.47
  C 455.48 348.82 453.24 341.52 454.43 337.73
  Q 456.70 330.53 463.76 328.08
  A 0.92 0.91 -35.1 0 1 464.60 328.22
  C 470.65 332.78 475.56 337.09 470.14 344.86
  Q 469.39 345.93 468.26 345.65
  A 0.74 0.74 0.0 0 1 467.74 344.69
  C 468.38 342.78 470.21 338.05 466.76 338.00
  C 461.19 337.93 460.84 348.99 460.54 352.99
  A 0.50 0.50 0.0 0 0 461.03 353.53
  L 465.94 353.69
  A 0.53 0.52 -2.5 0 1 466.45 354.15
  L 466.48 354.49
  Q 466.53 354.97 466.07 355.08
  L 461.52 356.19
  Q 460.86 356.35 460.91 357.03
  Z
  M 452.57 368.39
  A 1.38 1.38 0.0 0 0 453.12 367.79
  L 456.74 360.10
  A 1.38 1.38 0.0 0 0 454.64 358.42
  L 448.38 363.33
  A 1.38 1.38 0.0 0 0 447.91 364.04
  L 446.41 369.25
  A 1.38 1.38 0.0 0 0 448.44 370.82
  L 452.57 368.39
  Z"
/>
<path fill="#000b70" d="
  M 295.84 346.81
  Q 296.57 347.00 297.30 346.28
  C 300.79 342.83 304.41 339.02 307.02 334.83
  Q 308.66 332.20 312.23 333.50
  A 1.04 1.04 0.0 0 1 312.86 334.79
  Q 310.97 340.79 312.50 346.91
  Q 312.64 347.47 312.26 347.91
  L 310.34 350.16
  Q 309.95 350.62 309.40 350.34
  Q 306.06 348.62 304.56 345.19
  A 1.20 1.20 0.0 0 0 302.82 344.66
  C 293.59 350.51 290.98 357.96 288.40 368.35
  Q 287.94 370.21 286.34 369.15
  L 283.43 367.21
  Q 281.74 366.09 282.17 364.11
  C 284.61 353.06 288.18 343.41 293.09 332.16
  A 2.09 2.08 -67.4 0 1 295.77 331.05
  L 300.23 332.80
  Q 301.86 333.44 301.07 335.00
  L 295.50 346.05
  A 0.53 0.53 0.0 0 0 295.84 346.81
  Z"
/>
<path fill="#000b70" d="
  M 178.86 346.25
  Q 184.81 340.60 189.54 333.90
  Q 189.83 333.49 190.33 333.37
  Q 192.33 332.89 194.28 333.62
  Q 194.79 333.81 194.61 334.33
  Q 192.54 340.27 194.03 346.39
  Q 194.15 346.91 193.93 347.40
  Q 193.12 349.19 191.60 350.44
  Q 191.16 350.80 190.70 350.46
  Q 187.31 347.98 185.32 344.29
  Q 185.22 344.09 185.02 344.21
  C 176.10 349.69 171.57 358.29 170.09 368.45
  Q 169.91 369.75 168.73 369.18
  L 164.66 367.19
  Q 163.53 366.64 163.66 365.39
  Q 163.88 363.25 164.69 360.25
  Q 167.95 348.11 172.77 336.51
  Q 174.00 333.53 174.96 332.02
  Q 175.89 330.54 177.52 331.16
  L 182.17 332.95
  A 1.39 1.39 0.0 0 1 182.82 335.04
  Q 179.48 339.88 177.63 345.46
  Q 176.68 348.32 178.86 346.25
  Z"
/>
<path fill="#000b70" d="
  M 77.96 356.78
  Q 74.37 361.17 71.01 365.76
  Q 68.01 369.87 63.28 367.49
  Q 58.33 365.01 59.32 359.24
  C 60.82 350.57 65.30 338.60 72.18 332.10
  A 3.25 3.25 0.0 0 1 75.43 331.38
  L 78.92 332.54
  Q 80.64 333.11 79.56 334.56
  Q 70.77 346.36 67.22 361.75
  Q 66.77 363.72 68.23 363.82
  A 1.24 1.21 -68.0 0 0 69.28 363.36
  Q 74.84 356.45 79.80 349.51
  C 82.60 345.60 83.91 339.84 87.05 335.30
  Q 88.79 332.78 91.69 333.75
  L 93.62 334.40
  Q 96.45 335.35 95.14 338.03
  C 90.97 346.63 83.51 357.66 87.93 367.49
  A 0.41 0.41 0.0 0 1 87.53 368.07
  Q 80.92 367.66 78.52 361.73
  Q 78.30 361.18 78.34 360.59
  L 78.63 357.04
  Q 78.73 355.84 77.96 356.78
  Z"
/>
<path fill="#000b70" d="
  M 338.88 336.06
  A 1.27 1.27 0.0 0 0 337.30 335.37
  C 327.22 338.91 320.53 352.41 323.67 362.56
  C 325.47 368.37 335.54 360.77 337.60 359.24
  Q 339.85 357.57 339.02 360.25
  C 338.06 363.31 329.61 368.26 327.27 368.88
  Q 324.99 369.50 322.07 367.61
  C 314.45 362.70 312.67 353.14 316.41 345.21
  Q 319.63 338.38 326.05 334.04
  C 331.22 330.54 343.01 328.69 343.42 338.28
  Q 343.64 343.47 339.69 347.28
  A 2.59 2.59 0.0 0 1 336.98 347.83
  L 335.73 347.35
  Q 334.10 346.73 335.24 345.41
  C 337.37 342.93 340.35 339.43 338.88 336.06
  Z"
/>
<path fill="#000b70" d="
  M 141.95 358.40
  Q 141.31 361.13 142.14 363.38
  C 145.08 371.42 155.89 360.52 158.60 357.88
  Q 159.49 357.01 159.51 358.25
  C 159.59 361.86 151.48 367.11 148.24 368.75
  C 145.77 370.00 144.02 370.21 141.38 369.05
  C 120.23 359.75 150.07 320.81 160.48 334.18
  Q 161.89 336.00 161.55 338.64
  C 160.15 349.36 151.46 354.38 142.61 357.65
  Q 142.08 357.85 141.95 358.40
  Z
  M 148.17 343.29
  A 1.35 1.35 0.0 0 0 147.80 343.71
  L 142.83 352.55
  A 1.35 1.35 0.0 0 0 144.85 354.27
  L 153.09 347.74
  A 1.35 1.35 0.0 0 0 153.47 347.25
  L 156.80 340.01
  A 1.35 1.35 0.0 0 0 154.76 338.37
  L 148.17 343.29
  Z"
/>
<path fill="#000b70" d="
  M 222.52 356.27
  L 222.78 356.43
  Q 223.12 356.63 223.34 356.31
  C 227.24 350.70 240.44 331.16 248.51 335.74
  C 249.92 336.54 250.35 338.08 249.70 339.49
  Q 245.89 347.70 242.42 356.06
  Q 240.90 359.73 240.81 364.17
  A 1.29 1.28 3.4 0 0 241.97 365.47
  Q 243.81 365.64 245.57 365.17
  Q 246.14 365.02 246.25 365.60
  Q 246.37 366.26 245.58 366.83
  C 242.30 369.20 237.35 370.74 234.54 367.23
  C 230.76 362.51 235.40 351.24 237.63 346.63
  Q 239.60 342.57 236.16 345.49
  Q 234.92 346.54 233.02 348.76
  Q 224.56 358.59 219.11 367.08
  Q 217.76 369.18 215.91 367.90
  C 213.40 366.16 212.81 364.04 213.49 361.00
  Q 215.69 351.22 221.34 342.91
  Q 221.69 342.40 221.52 341.83
  A 0.31 0.31 0.0 0 0 221.02 341.68
  C 212.49 348.74 205.63 358.46 199.80 367.89
  A 1.24 1.23 37.4 0 1 197.91 368.14
  Q 194.10 364.59 195.06 359.25
  C 196.80 349.53 201.42 341.15 205.67 332.62
  Q 206.76 330.44 208.87 331.67
  L 212.59 333.83
  Q 214.64 335.02 213.49 337.09
  Q 210.45 342.54 206.58 348.84
  C 205.72 350.24 203.79 354.25 203.66 356.46
  Q 203.60 357.52 204.19 356.64
  Q 209.41 348.85 215.71 341.96
  C 219.50 337.82 224.52 332.73 230.56 336.67
  Q 232.31 337.82 231.32 339.66
  L 222.47 356.09
  Q 222.41 356.20 222.52 356.27
  Z"
/>
<path fill="#000b70" d="
  M 260.42 358.58
  Q 259.76 361.34 260.76 363.79
  C 263.76 371.17 274.86 359.79 277.31 357.35
  A 0.54 0.53 -24.9 0 1 278.22 357.68
  C 278.60 361.90 265.96 370.87 261.73 369.79
  Q 252.49 367.43 252.51 357.76
  C 252.53 347.95 261.27 334.59 270.82 331.91
  Q 276.10 330.42 279.34 334.63
  C 280.87 336.60 279.79 340.59 279.04 342.80
  C 276.15 351.39 268.24 354.08 261.03 357.81
  Q 260.55 358.06 260.42 358.58
  Z
  M 267.20 342.65
  A 1.48 1.48 0.0 0 0 266.79 343.10
  L 261.30 352.34
  A 1.48 1.48 0.0 0 0 263.53 354.22
  L 271.73 347.21
  A 1.48 1.48 0.0 0 0 272.11 346.71
  L 275.05 340.44
  A 1.48 1.48 0.0 0 0 272.85 338.60
  L 267.20 342.65
  Z"
/>
<path fill="#000b70" d="
  M 442.43 338.77
  C 445.23 351.63 437.57 364.20 425.55 368.72
  C 414.28 372.95 411.71 358.74 413.73 351.42
  C 415.84 343.77 422.74 333.59 431.02 331.61
  C 434.37 330.81 435.68 334.18 437.68 336.07
  Q 438.04 336.40 438.51 336.49
  Q 440.42 336.85 441.94 338.01
  A 1.29 1.27 12.7 0 1 442.43 338.77
  Z
  M 422.81 366.42
  C 433.07 363.67 437.66 351.43 437.67 342.00
  Q 437.67 340.02 436.63 338.77
  A 1.09 1.08 58.3 0 0 435.37 338.47
  C 426.32 342.44 417.79 355.37 420.95 365.40
  A 1.53 1.53 0.0 0 0 422.81 366.42
  Z"
/>
<path fill="#000b70" d="
  M 364.76 354.97
  A 0.21 0.21 0.0 0 0 364.36 354.88
  Q 360.95 361.81 354.93 366.94
  C 350.78 370.46 345.92 367.63 345.12 362.74
  C 344.46 358.75 344.75 355.11 346.25 351.23
  C 348.92 344.32 354.34 336.12 361.25 332.94
  Q 364.10 331.62 366.23 333.92
  L 368.01 335.82
  Q 370.07 338.04 367.24 339.09
  C 358.77 342.23 352.57 353.07 351.32 361.47
  Q 351.07 363.20 352.49 364.12
  Q 352.90 364.39 353.29 364.10
  C 355.06 362.80 356.76 361.58 358.07 359.77
  Q 365.65 349.32 371.13 337.71
  Q 371.75 336.41 373.13 336.81
  L 376.20 337.70
  Q 377.71 338.14 377.06 339.57
  C 374.00 346.37 371.46 352.78 370.42 360.23
  C 370.06 362.78 370.71 364.87 371.68 367.12
  A 0.66 0.66 0.0 0 1 371.18 368.03
  C 359.05 369.95 364.71 360.89 364.76 354.97
  Z"
/>
</svg>
